<?xml version="1.0" encoding="UTF-8" standalone="no"?>
<!DOCTYPE svg PUBLIC "-//W3C//DTD SVG 1.0//EN" "http://www.w3.org/TR/2001/PR-SVG-20010719/DTD/svg10.dtd">
<svg width="57cm" height="40cm" viewBox="165 -580 1135 788" xmlns="http://www.w3.org/2000/svg" xmlns:xlink="http://www.w3.org/1999/xlink">
  <g>
    <rect style="fill: #ffffff" x="424" y="-316.5" width="97.9" height="70"/>
    <rect style="fill: none; fill-opacity:0; stroke-width: 2; stroke: #000000" x="424" y="-316.5" width="97.9" height="70"/>
    <rect style="fill: #ffffff" x="404" y="-302.5" width="40" height="14"/>
    <rect style="fill: none; fill-opacity:0; stroke-width: 2; stroke: #000000" x="404" y="-302.5" width="40" height="14"/>
    <rect style="fill: #ffffff" x="404" y="-274.5" width="40" height="14"/>
    <rect style="fill: none; fill-opacity:0; stroke-width: 2; stroke: #000000" x="404" y="-274.5" width="40" height="14"/>
    <text style="fill: #000000;text-anchor:start;font-size:12.8;font-family:sanserif;font-style:normal;font-weight:normal" x="452" y="-290.6">
      <tspan x="452" y="-290.6">gfal posix</tspan>
    </text>
  </g>
  <g>
    <rect style="fill: #ffffff" x="737" y="-317.5" width="119.85" height="70"/>
    <rect style="fill: none; fill-opacity:0; stroke-width: 2; stroke: #000000" x="737" y="-317.5" width="119.85" height="70"/>
    <rect style="fill: #ffffff" x="717" y="-303.5" width="40" height="14"/>
    <rect style="fill: none; fill-opacity:0; stroke-width: 2; stroke: #000000" x="717" y="-303.5" width="40" height="14"/>
    <rect style="fill: #ffffff" x="717" y="-275.5" width="40" height="14"/>
    <rect style="fill: none; fill-opacity:0; stroke-width: 2; stroke: #000000" x="717" y="-275.5" width="40" height="14"/>
    <text style="fill: #000000;text-anchor:start;font-size:12.8;font-family:sanserif;font-style:normal;font-weight:normal" x="765" y="-291.6">
      <tspan x="765" y="-291.6">gfal common</tspan>
    </text>
  </g>
  <g>
    <polyline style="fill: none; fill-opacity:0; stroke-width: 2; stroke: #000000" points="521.9,-281.5 563.254,-281.5 563.254,-281.5 603,-281.5 "/>
    <path style="fill: none; fill-opacity:0; stroke-width: 2; stroke: #000000" d="M 611,-289.5 A 8,8 0 1 0 611,-273.5"/>
    <text style="fill: #000000;text-anchor:middle;font-size:12.8;font-family:monospace;font-style:normal;font-weight:normal" x="663" y="-299.5">
      <tspan x="663" y="-299.5"></tspan>
    </text>
  </g>
  <g>
    <polyline style="fill: none; fill-opacity:0; stroke-width: 2; stroke: #000000" points="402.994,-267.5 292.997,-267.5 292.997,-273 200,-273 "/>
    <path style="fill: #ffffff" d="M 184 -273 C 184,-277 188,-281 192,-281 C 196,-281 200,-277 200,-273 C 200,-269 196,-265 192,-265 C 188,-265 184,-269 184,-273z"/>
    <path style="fill: none; fill-opacity:0; stroke-width: 2; stroke: #000000" d="M 184 -273 C 184,-277 188,-281 192,-281 C 196,-281 200,-277 200,-273 C 200,-269 196,-265 192,-265 C 188,-265 184,-269 184,-273"/>
    <text style="fill: #000000;text-anchor:middle;font-size:12.8;font-family:monospace;font-style:normal;font-weight:normal" x="416" y="-304.5">
      <tspan x="416" y="-304.5"></tspan>
    </text>
  </g>
  <g>
    <polyline style="fill: none; fill-opacity:0; stroke-width: 2; stroke: #000000" points="737,-282.5 678,-282.5 678,-281.5 636,-281.5 "/>
    <path style="fill: #ffffff" d="M 620 -281.5 C 620,-285.5 624,-289.5 628,-289.5 C 632,-289.5 636,-285.5 636,-281.5 C 636,-277.5 632,-273.5 628,-273.5 C 624,-273.5 620,-277.5 620,-281.5z"/>
    <path style="fill: none; fill-opacity:0; stroke-width: 2; stroke: #000000" d="M 620 -281.5 C 620,-285.5 624,-289.5 628,-289.5 C 632,-289.5 636,-285.5 636,-281.5 C 636,-277.5 632,-273.5 628,-273.5 C 624,-273.5 620,-277.5 620,-281.5"/>
    <text style="fill: #000000;text-anchor:middle;font-size:12.8;font-family:monospace;font-style:normal;font-weight:normal" x="733" y="-303.5">
      <tspan x="733" y="-303.5"></tspan>
    </text>
  </g>
  <text style="fill: #000000;text-anchor:start;font-size:45.1556;font-family:sanserif;font-style:normal;font-weight:700" x="738" y="-536.5">
    <tspan x="738" y="-536.5">GFAL 2.0 design</tspan>
  </text>
  <g>
    <polygon style="fill: #ffffff" points="559,-123.5 842.2,-123.5 854.2,-111.5 854.2,-25.5 559,-25.5 "/>
    <polygon style="fill: none; fill-opacity:0; stroke-width: 2; stroke: #000000" points="559,-123.5 842.2,-123.5 854.2,-111.5 854.2,-25.5 559,-25.5 "/>
    <polyline style="fill: none; fill-opacity:0; stroke-width: 1; stroke: #000000" points="842.2,-123.5 842.2,-111.5 854.2,-111.5 "/>
    <text style="fill: #000000;text-anchor:start;font-size:12.8;font-family:monospace;font-style:normal;font-weight:normal" x="566" y="-98.6">
      <tspan x="566" y="-98.6">- Error Management</tspan>
      <tspan x="566" y="-82.6">- URL resolution</tspan>
      <tspan x="566" y="-66.6">- Plugin load/unload</tspan>
      <tspan x="566" y="-50.6">- Bdii/ vomcs conveniences functions</tspan>
      <tspan x="566" y="-34.6">- logging functions</tspan>
    </text>
  </g>
  <g>
    <rect style="fill: #ffffff" x="1156" y="-290.5" width="122.85" height="70"/>
    <rect style="fill: none; fill-opacity:0; stroke-width: 2; stroke: #000000" x="1156" y="-290.5" width="122.85" height="70"/>
    <rect style="fill: #ffffff" x="1136" y="-276.5" width="40" height="14"/>
    <rect style="fill: none; fill-opacity:0; stroke-width: 2; stroke: #000000" x="1136" y="-276.5" width="40" height="14"/>
    <rect style="fill: #ffffff" x="1136" y="-248.5" width="40" height="14"/>
    <rect style="fill: none; fill-opacity:0; stroke-width: 2; stroke: #000000" x="1136" y="-248.5" width="40" height="14"/>
    <text style="fill: #000000;text-anchor:start;font-size:12.8;font-family:sanserif;font-style:normal;font-weight:normal" x="1184" y="-264.6">
      <tspan x="1184" y="-264.6">gfal lfc plugin</tspan>
    </text>
  </g>
  <g>
    <rect style="fill: #ffffff" x="1160" y="-158.5" width="138.95" height="70"/>
    <rect style="fill: none; fill-opacity:0; stroke-width: 2; stroke: #000000" x="1160" y="-158.5" width="138.95" height="70"/>
    <rect style="fill: #ffffff" x="1140" y="-144.5" width="40" height="14"/>
    <rect style="fill: none; fill-opacity:0; stroke-width: 2; stroke: #000000" x="1140" y="-144.5" width="40" height="14"/>
    <rect style="fill: #ffffff" x="1140" y="-116.5" width="40" height="14"/>
    <rect style="fill: none; fill-opacity:0; stroke-width: 2; stroke: #000000" x="1140" y="-116.5" width="40" height="14"/>
    <text style="fill: #000000;text-anchor:start;font-size:12.8;font-family:sanserif;font-style:normal;font-weight:normal" x="1188" y="-132.6">
      <tspan x="1188" y="-132.6">gfal dcap plugin</tspan>
    </text>
  </g>
  <g>
    <rect style="fill: #ffffff" x="1159" y="-40.5" width="128.9" height="70"/>
    <rect style="fill: none; fill-opacity:0; stroke-width: 2; stroke: #000000" x="1159" y="-40.5" width="128.9" height="70"/>
    <rect style="fill: #ffffff" x="1139" y="-26.5" width="40" height="14"/>
    <rect style="fill: none; fill-opacity:0; stroke-width: 2; stroke: #000000" x="1139" y="-26.5" width="40" height="14"/>
    <rect style="fill: #ffffff" x="1139" y="1.5" width="40" height="14"/>
    <rect style="fill: none; fill-opacity:0; stroke-width: 2; stroke: #000000" x="1139" y="1.5" width="40" height="14"/>
    <text style="fill: #000000;text-anchor:start;font-size:12.8;font-family:sanserif;font-style:normal;font-weight:normal" x="1187" y="-14.6">
      <tspan x="1187" y="-14.6">gfal rfio plugin</tspan>
    </text>
  </g>
  <rect style="fill: none; fill-opacity:0; stroke-width: 2; stroke-dasharray: 20; stroke: #000000" x="246" y="-487" width="629.615" height="693.5"/>
  <text style="fill: #000000;text-anchor:start;font-size:12.8;font-family:sanserif;font-style:normal;font-weight:normal" x="523.154" y="-356.5">
    <tspan x="523.154" y="-356.5"></tspan>
  </text>
  <text style="fill: #000000;text-anchor:start;font-size:12.8;font-family:sanserif;font-style:normal;font-weight:normal" x="560.808" y="-140.25">
    <tspan x="560.808" y="-140.25"></tspan>
  </text>
  <text style="fill: #000000;text-anchor:start;font-size:28.2222;font-family:sanserif;font-style:normal;font-weight:normal" x="471.154" y="-416">
    <tspan x="471.154" y="-416">libgfal2</tspan>
  </text>
  <g>
    <polyline style="fill: none; fill-opacity:0; stroke-width: 2; stroke-dasharray: 8; stroke: #000000" points="796.925,-247.5 796.925,-185.5 706.6,-185.5 706.6,-130.205 "/>
    <polyline style="fill: none; fill-opacity:0; stroke-width: 2; stroke: #000000" points="701.6,-142.853 706.6,-126.853 711.6,-142.853 "/>
  </g>
  <g>
    <polygon style="fill: #ffffff" points="268,-145 520.4,-145 532.4,-133 532.4,-63 268,-63 "/>
    <polygon style="fill: none; fill-opacity:0; stroke-width: 2; stroke: #000000" points="268,-145 520.4,-145 532.4,-133 532.4,-63 268,-63 "/>
    <polyline style="fill: none; fill-opacity:0; stroke-width: 1; stroke: #000000" points="520.4,-145 520.4,-133 532.4,-133 "/>
    <text style="fill: #000000;text-anchor:start;font-size:12.7998;font-family:monospace;font-style:normal;font-weight:normal" x="275" y="-120.1">
      <tspan x="275" y="-120.1">- Posix Interface</tspan>
      <tspan x="275" y="-104.1">- convert posix to internal call</tspan>
      <tspan x="275" y="-88.1">- safety of the url</tspan>
      <tspan x="275" y="-72.1">- local file management</tspan>
    </text>
  </g>
  <g>
    <polyline style="fill: none; fill-opacity:0; stroke-width: 2; stroke-dasharray: 8; stroke: #000000" points="468,-244 468,-194.5 400.2,-194.5 400.2,-151.705 "/>
    <polyline style="fill: none; fill-opacity:0; stroke-width: 2; stroke: #000000" points="395.2,-164.353 400.2,-148.353 405.2,-164.353 "/>
  </g>
  <g>
    <polyline style="fill: none; fill-opacity:0; stroke-width: 2; stroke: #000000" points="856.85,-282.5 886.733,-282.5 886.733,-142 899.615,-142 "/>
    <path style="fill: #ffffff" d="M 915.615 -142 C 915.615,-138 911.615,-134 907.615,-134 C 903.615,-134 899.615,-138 899.615,-142 C 899.615,-146 903.615,-150 907.615,-150 C 911.615,-150 915.615,-146 915.615,-142z"/>
    <path style="fill: none; fill-opacity:0; stroke-width: 2; stroke: #000000" d="M 915.615 -142 C 915.615,-138 911.615,-134 907.615,-134 C 903.615,-134 899.615,-138 899.615,-142 C 899.615,-146 903.615,-150 907.615,-150 C 911.615,-150 915.615,-146 915.615,-142"/>
    <text style="fill: #000000;text-anchor:middle;font-size:12.7998;font-family:monospace;font-style:normal;font-weight:normal" x="953.615" y="-260">
      <tspan x="953.615" y="-260"></tspan>
    </text>
  </g>
  <g>
    <rect style="fill: #ffffff" x="1164.45" y="60.5" width="131.9" height="70"/>
    <rect style="fill: none; fill-opacity:0; stroke-width: 2; stroke: #000000" x="1164.45" y="60.5" width="131.9" height="70"/>
    <rect style="fill: #ffffff" x="1144.45" y="74.5" width="40" height="14"/>
    <rect style="fill: none; fill-opacity:0; stroke-width: 2; stroke: #000000" x="1144.45" y="74.5" width="40" height="14"/>
    <rect style="fill: #ffffff" x="1144.45" y="102.5" width="40" height="14"/>
    <rect style="fill: none; fill-opacity:0; stroke-width: 2; stroke: #000000" x="1144.45" y="102.5" width="40" height="14"/>
    <text style="fill: #000000;text-anchor:start;font-size:12.8;font-family:sanserif;font-style:normal;font-weight:normal" x="1192.45" y="86.4">
      <tspan x="1192.45" y="86.4">gfal srm plugin</tspan>
    </text>
  </g>
  <g>
    <polyline style="fill: none; fill-opacity:0; stroke-width: 2; stroke: #000000" points="1134.99,-241.5 1025.8,-241.5 1025.8,-142 932.615,-142 "/>
    <path style="fill: none; fill-opacity:0; stroke-width: 2; stroke: #000000" d="M 924.615,-134 A 8,8 0 1 0 924.615,-150"/>
    <text style="fill: #000000;text-anchor:middle;font-size:12.7998;font-family:monospace;font-style:normal;font-weight:normal" x="1158.16" y="-278">
      <tspan x="1158.16" y="-278"></tspan>
    </text>
  </g>
  <g>
    <polyline style="fill: none; fill-opacity:0; stroke-width: 2; stroke: #000000" points="1140,-109.5 1028.31,-109.5 1028.31,-142 932.615,-142 "/>
    <path style="fill: none; fill-opacity:0; stroke-width: 2; stroke: #000000" d="M 924.615,-134 A 8,8 0 1 0 924.615,-150"/>
    <text style="fill: #000000;text-anchor:middle;font-size:12.7998;font-family:monospace;font-style:normal;font-weight:normal" x="1138.16" y="-128">
      <tspan x="1138.16" y="-128"></tspan>
    </text>
  </g>
  <g>
    <polyline style="fill: none; fill-opacity:0; stroke-width: 2; stroke: #000000" points="1138.02,8.5 1030.16,8.5 1030.16,-142 932.615,-142 "/>
    <path style="fill: none; fill-opacity:0; stroke-width: 2; stroke: #000000" d="M 924.615,-134 A 8,8 0 1 0 924.615,-150"/>
    <text style="fill: #000000;text-anchor:middle;font-size:12.7998;font-family:monospace;font-style:normal;font-weight:normal" x="1141.16" y="-36">
      <tspan x="1141.16" y="-36"></tspan>
    </text>
  </g>
  <g>
    <polyline style="fill: none; fill-opacity:0; stroke-width: 2; stroke: #000000" points="1143.16,78 1029.89,78 1029.89,-142 932.615,-142 "/>
    <path style="fill: none; fill-opacity:0; stroke-width: 2; stroke: #000000" d="M 924.615,-134 A 8,8 0 1 0 924.615,-150"/>
    <text style="fill: #000000;text-anchor:middle;font-size:12.7998;font-family:monospace;font-style:normal;font-weight:normal" x="1143.16" y="58">
      <tspan x="1143.16" y="58"></tspan>
    </text>
  </g>
  <g>
    <polygon style="fill: #ffffff" points="895.156,-220 1024.36,-220 1036.36,-208 1036.36,-186 895.156,-186 "/>
    <polygon style="fill: none; fill-opacity:0; stroke-width: 2; stroke: #000000" points="895.156,-220 1024.36,-220 1036.36,-208 1036.36,-186 895.156,-186 "/>
    <polyline style="fill: none; fill-opacity:0; stroke-width: 1; stroke: #000000" points="1024.36,-220 1024.36,-208 1036.36,-208 "/>
    <text style="fill: #000000;text-anchor:start;font-size:12.7998;font-family:monospace;font-style:normal;font-weight:normal" x="902.156" y="-195.1">
      <tspan x="902.156" y="-195.1">Plugin Interface</tspan>
    </text>
  </g>
</svg>
